<svg xmlns="http://www.w3.org/2000/svg" viewBox="0 0 102 201"><defs><style>.cls-1{fill:none;stroke:#ff2291;stroke-miterlimit:10;stroke-opacity:0.5;stroke-width:2px;}.cls-2{fill:#ff2291;}.cls-3{fill:#fff;}</style></defs><g id="Layer_2" data-name="Layer 2"><g id="文字要素_スクロール_" data-name="文字要素（スクロール）"><polyline class="cls-1" points="63 1 101 1 101 39"/><polyline class="cls-1" points="39 200 1 200 1 162"/><path class="cls-2" d="M71,33.83c-1.51.46-3.15.93-4.44,1.3l-.43-1.64c.47-.1,1-.24,1.66-.39V31H66.5v-1.6h1.25V27.55H66.42V25.94h4.27v1.61H69.43v1.83h1.12V31H69.43v1.68l1.3-.35Zm5.2,1.33c.16,0,.21-.19.23-1.37a4.68,4.68,0,0,0,1.46.63c-.15,1.74-.54,2.23-1.5,2.23h-.77c-1.25,0-1.51-.49-1.51-1.89V32.57h-.48c-.18,2-.7,3.41-3.41,4.21a5,5,0,0,0-1-1.44c2.22-.52,2.51-1.42,2.66-2.77h-.78V25.73h6v6.84h-1.4v2.17c0,.39,0,.42.16.42Zm-3.44-7.55h2.72v-.48H72.72Zm0,1.77h2.72V28.9H72.72Zm0,1.78h2.72v-.47H72.72Z"/><path class="cls-2" d="M73.6,49.21a6.38,6.38,0,0,0,3.85,1.36,6.38,6.38,0,0,0-1,1.53,6.13,6.13,0,0,1-4.52-2.45,7.62,7.62,0,0,1-4.38,2.41,6.35,6.35,0,0,0-1.08-1.4,7.81,7.81,0,0,0,3.6-1.45H66.74v-1.5h4.19a3.33,3.33,0,0,0,.07-.54H68.08v-1.4H71v-.51H67.89v-.89h-1.1V41.65h4.27v-1h1.8v1h4.29v2.72h-1v.89H72.77v.51h3.1v1.4H72.76a3.29,3.29,0,0,1-.05.54h4.56v1.5ZM71,43.87v-.51h1.76v.51h2.57v-.71H68.52v.71Z"/><path class="cls-3" d="M70.53,57.45a2.3,2.3,0,0,1,.78-.15c.48,0,1.36.41,1.36.7s-.24.4-.38.7-.28.72-.5,1.24a5.77,5.77,0,0,1,1-.11c.88,0,1.39.49,1.39,1.88A7.08,7.08,0,0,1,73,65.66a1.82,1.82,0,0,1-1.43.73c-.4,0-.47-.16-.62-.51-.09-.19-.17-.32-.82-.88l.12-.19a4,4,0,0,0,1.43.69,1,1,0,0,0,.92-.61,7,7,0,0,0,.83-3.37c0-.85-.21-1.21-.84-1.21a5,5,0,0,0-1.07.17c-.32.79-.72,1.69-1.1,2.47-.65,1.29-1.25,2.45-1.74,3.2-.18.29-.31.36-.49.36a.41.41,0,0,1-.36-.45.89.89,0,0,1,.19-.54,17.9,17.9,0,0,0,1.83-2.9c.29-.55.6-1.24.88-1.92-.44.15-.83.29-1.07.39a2.91,2.91,0,0,1-1,.32c-.3,0-.75-.45-.84-.83a2,2,0,0,1,0-.68l.23,0c.14.33.22.7.56.7A19.8,19.8,0,0,0,71,60.08a9.23,9.23,0,0,0,.61-1.88.31.31,0,0,0-.18-.33,4.6,4.6,0,0,0-.9-.18ZM75,59.84a3,3,0,0,1,2,1A3.18,3.18,0,0,1,77.81,63c0,.49-.15.89-.51.89s-.32-.33-.66-.4a6.77,6.77,0,0,0-1.39,0l-.06-.28c.43-.09,1.16-.25,1.48-.35s.29-.21.28-.51a2.67,2.67,0,0,0-.48-1.31,2.22,2.22,0,0,0-1.55-.93Zm.5-2a4.07,4.07,0,0,1,1.34.79c.3.27.42.47.42.7a.28.28,0,0,1-.29.31c-.19,0-.33-.25-.55-.55a5.15,5.15,0,0,0-1.08-1Zm1.06-.74a4.14,4.14,0,0,1,1.34.67,1,1,0,0,1,.45.73.27.27,0,0,1-.29.31c-.19,0-.3-.29-.56-.56a5.86,5.86,0,0,0-1.09-1Z"/><path class="cls-3" d="M73.34,77v1.85h4.39v.84H73.34v2.87h-.91V79.72H68.19v-.84h4.24V77h-4.8v-.85H74A12.59,12.59,0,0,0,75.1,74H70.84a9.94,9.94,0,0,1,.89,1.85l-.81.35a9.86,9.86,0,0,0-.87-1.92L70.8,74H68.47v-.82h4V71.6h.91v1.54h4.12V74H75.14l.87.28c-.34.65-.73,1.38-1.09,1.94h3.3V77Z"/><path class="cls-3" d="M73,87.76l.15-.22a2.46,2.46,0,0,1,.72.25c.43.23.86.72.86,1s-.2.33-.61.65c-.79.63-2.34,2.05-2.82,2.54s-.43.48-.43.61.14.31.41.5a18.3,18.3,0,0,1,3.08,2.79A2.37,2.37,0,0,1,75,97.12c0,.31-.16.53-.47.53a.51.51,0,0,1-.42-.3,11.18,11.18,0,0,0-.57-1,14.17,14.17,0,0,0-2.83-2.88,1,1,0,0,1-.44-.77,1,1,0,0,1,.3-.62c.59-.71,2.33-2.4,2.87-3,.2-.24.27-.35.27-.49S73.49,88.09,73,87.76Z"/><path class="cls-3" d="M68.13,104.92a1.07,1.07,0,0,0,.76.59c.61,0,2.85-.66,4.8-1.11a15.08,15.08,0,0,1,2.67-.5,2.23,2.23,0,0,1,.84.14c.25.12.36.26.36.42s-.14.32-.4.32-.58,0-1,0a4,4,0,0,0-2,.45,4.2,4.2,0,0,0-1.69,3.74,2.17,2.17,0,0,0,1,2.1,4.52,4.52,0,0,0,2.27.38c.3,0,.69.22.69.52s-.32.38-.86.38a4.53,4.53,0,0,1-2.64-.65,2.82,2.82,0,0,1-1.13-2.59,4.9,4.9,0,0,1,1.78-4c.08-.07.07-.14-.07-.11a26.79,26.79,0,0,0-3.7,1.21,1.76,1.76,0,0,1-.72.3,1.48,1.48,0,0,1-1.14-.94,3.26,3.26,0,0,1,0-.54Z"/><path class="cls-3" d="M74,122.47c1.83.9,2.52,2,2.52,3.27,0,1.13-1,2.46-3,2.46a2.23,2.23,0,0,1-2.46-2.4c0-.29,0-.65.08-1-1.1-.25-1.74-.79-1.74-1.47s.71-1.32,1.6-1.78a2.76,2.76,0,0,1-.86-.37,1.92,1.92,0,0,1-.81-1.2l.21-.12a2.47,2.47,0,0,0,1.08,1,4.43,4.43,0,0,0,1.29.29,15.56,15.56,0,0,0,.45-1.73.38.38,0,0,0-.28-.45,2.31,2.31,0,0,0-.62-.18v-.25a3.45,3.45,0,0,1,.66-.06c.55,0,1.27.57,1.27.89s-.18.32-.31.59a8.05,8.05,0,0,0-.47,1.24l.42,0c.38,0,.54.24.54.45s-.17.3-.46.31a5.14,5.14,0,0,1-.74,0c-.18.59-.4,1.42-.56,2.2.58,0,1.05,0,1.31,0s.47.16.47.39-.14.34-.59.39a6.25,6.25,0,0,1-1.34,0,5.68,5.68,0,0,0-.09.93c0,1.18.76,1.7,1.85,1.7a2.06,2.06,0,0,0,2.3-2c0-1.31-.78-2.06-1.88-2.87Zm-2.77,1.58c.13-.79.31-1.58.46-2.17-.78.06-1.84.74-1.84,1.31C69.87,123.53,70.16,123.88,71.25,124.05Z"/><path class="cls-3" d="M73.67,137.38a8.75,8.75,0,0,0,4.72,5.76,4.19,4.19,0,0,0-.67.84c-2.31-1.09-3.83-3.21-4.78-5.94A8.37,8.37,0,0,1,68.16,144a2.56,2.56,0,0,0-.67-.73,7.79,7.79,0,0,0,4.66-5.87H67.73v-.91h4.56a25.18,25.18,0,0,0,.18-3.4h1a27,27,0,0,1-.19,3.4h5v.91Z"/><path class="cls-3" d="M74.66,151.59c-.11,2.14-.42,3.88-1.51,5.19a10.6,10.6,0,0,0,5.18,1.74,3.22,3.22,0,0,0-.53.84,11,11,0,0,1-5.29-1.92,9.22,9.22,0,0,1-4.22,1.84,2.53,2.53,0,0,0-.5-.78,8.55,8.55,0,0,0,4-1.67,9.78,9.78,0,0,1-2.39-4.47l.84-.2a8.24,8.24,0,0,0,2.19,4,7.56,7.56,0,0,0,1.28-4.61h-6v-.86h6c0-.67,0-1.39,0-2.15h1c0,.75,0,1.46,0,2.15h3.46v.86Z"/><path class="cls-3" d="M73.49,169.84a6.42,6.42,0,0,0,5,4,3.91,3.91,0,0,0-.58.84,7.13,7.13,0,0,1-5-4.07c-.6,1.63-1.94,3.11-4.88,4.12a3.12,3.12,0,0,0-.56-.8c3-1,4.22-2.5,4.68-4.1H67.76v-.9h4.57a12.21,12.21,0,0,0,.09-1.47v-1H68.58v-.9h3.84v-1.81h.93v1.81h4.08v.9H73.35v1a14.46,14.46,0,0,1-.07,1.47h4.83v.9Z"/><path class="cls-3" d="M72.15,188.56a.76.76,0,1,1,.76.74A.73.73,0,0,1,72.15,188.56Zm1.42-7.77c0,.67-.1,1.75-.3,3.9l-.16,1.94H72.7l-.15-1.94c-.21-2.16-.3-3.23-.3-3.89s.24-.81.66-.81S73.57,180.23,73.57,180.79Z"/><path class="cls-3" d="M52.67,27.49c.18.26.4.65.76.65a31.06,31.06,0,0,0,3.74-.6c.36-.1.42-.29.59-.29s1,.51,1,.75-.47.32-.61.48a13.55,13.55,0,0,1-1.81,1.95.61.61,0,0,1,.28.43c0,.31-.07.75-.07,2.67,0,.37,0,.82,0,1.09s-.08.54-.42.54-.47-.57-.47-.87.05-.31.1-.76.09-1.65.09-2.25a1.82,1.82,0,0,0,0-.45,17.16,17.16,0,0,1-4.74,2.75L51,33.29c2.37-1.16,5.38-3.38,6.36-5.07.08-.14.06-.18-.1-.17-.43.06-2.36.52-3,.67-.38.11-.42.34-.71.34a1.49,1.49,0,0,1-1-.76,2.22,2.22,0,0,1-.11-.74Zm2-2.56c1.16.23,2.45.74,2.45,1.55a.44.44,0,0,1-.41.43c-.26,0-.4-.23-.61-.53a6.27,6.27,0,0,0-1.57-1.24Zm2.8,5.41c1.58.37,2.93,1.18,2.93,2.13a.37.37,0,0,1-.37.39c-.23,0-.33-.09-.53-.38a5.68,5.68,0,0,0-2.17-1.91Z"/><path class="cls-3" d="M54.41,43.14l.13-.12a3,3,0,0,1,.83.57,1.71,1.71,0,0,1,.73,1.2.37.37,0,0,1-.39.41c-.36,0-.4-.45-.69-1.07A4.2,4.2,0,0,0,54.41,43.14Zm.89,5.62-.13-.2C58.19,47,60,44,60,43.12c0-.18-.18-.32-.63-.5l.06-.17a3.36,3.36,0,0,1,.55,0c.45.06,1,.58,1,.87s-.22.28-.34.56A9.38,9.38,0,0,1,55.3,48.76Zm1.12-6.24.14-.1a3.42,3.42,0,0,1,.86.58,1.5,1.5,0,0,1,.64,1.12.38.38,0,0,1-.4.42c-.37,0-.37-.48-.64-1.06A4.65,4.65,0,0,0,56.42,42.52Z"/><path class="cls-3" d="M53.92,56.46a3.54,3.54,0,0,1,.75-.15c.5,0,1.3.45,1.3.73s-.21.29-.25.68c-.06.56-.08,1.4-.08,2.06a10.42,10.42,0,0,1,2.89,1c.36.24.68.54.68.9a.39.39,0,0,1-.41.42c-.38,0-.52-.4-1.24-1a8.57,8.57,0,0,0-1.92-1c0,.83,0,2.73,0,4,0,.52,0,.87,0,1.08s-.11.45-.39.45-.59-.63-.59-1c0-.27.1-.47.15-.93.1-.87.1-2.78.1-3.67s0-2.23-.08-2.82c0-.37-.31-.45-.92-.51Z"/><path class="cls-3" d="M54.15,76.3c-.24.63-.78,2-.91,2.39a3.33,3.33,0,0,0-.19.85c0,.34.24.72.24,1a.33.33,0,0,1-.36.37c-.21,0-.4-.18-.57-.45a5.33,5.33,0,0,1-.68-2.62,10.84,10.84,0,0,1,.56-3.11,6.35,6.35,0,0,0,.3-1.37,2,2,0,0,0-.66-1.24l.19-.15a2.55,2.55,0,0,1,.6.35,2,2,0,0,1,.77,1.25A3.68,3.68,0,0,1,53,74.74a7.46,7.46,0,0,0-.75,2.89,1.8,1.8,0,0,0,.18,1c.08.14.16.17.27,0,.25-.4.91-1.86,1.19-2.45Zm1.17,1a4.75,4.75,0,0,0,.35,1c.4.71,1,1.1,2.46,1.1a11.77,11.77,0,0,0,2-.21c.32,0,.63.12.63.4,0,.47-1.08.62-2.37.62-1.84,0-2.84-.62-3.18-1.82a3.78,3.78,0,0,1-.15-1.07Zm.14-3.67a5.85,5.85,0,0,1,2.8-.73,3.94,3.94,0,0,1,1.65.24.51.51,0,0,1,.36.43c0,.15-.09.25-.34.28a3.67,3.67,0,0,0-1,.24c-.5.24-1.34.71-1.93,1.07L56.85,75c.51-.38,1.34-1,1.58-1.19s.15-.21-.64-.21a7.59,7.59,0,0,0-2.23.38Z"/><path class="cls-3" d="M51.82,87.1a1.91,1.91,0,0,1,.61.35,2.07,2.07,0,0,1,.81,1.3c0,.26-.18.48-.47,1.17A8.25,8.25,0,0,0,52,93a2.46,2.46,0,0,0,.22,1.17c.07.15.18.17.27,0,.26-.39.89-2,1.17-2.55l.27.13c-.21.63-.7,2-.86,2.41a3,3,0,0,0-.19.82c0,.36.17.72.17,1a.33.33,0,0,1-.34.36c-.22,0-.41-.18-.56-.45a5.21,5.21,0,0,1-.7-2.74A11.6,11.6,0,0,1,52,89.91a6.48,6.48,0,0,0,.3-1.37,1.94,1.94,0,0,0-.68-1.28Zm5,.23a2.51,2.51,0,0,1,.88-.24c.51,0,1.14.34,1.14.6a8,8,0,0,1-.2.83c0,.25-.07.6-.09,1a4.2,4.2,0,0,0,.73-.26c.5-.18.67-.31.78-.31s.62.15.62.38-.16.34-.55.48a15.72,15.72,0,0,1-1.59.41c0,1.22.1,2.41.18,3.31a4.74,4.74,0,0,1,1.93,1,1,1,0,0,1,.37.67c0,.24-.1.39-.3.39s-.32-.15-.55-.36a5.2,5.2,0,0,0-1.41-1,2,2,0,0,1,0,.32c0,.92-.57,1.55-2,1.55-1,0-1.88-.48-1.88-1.34s1-1.46,2.31-1.46a7.21,7.21,0,0,1,.83,0c0-.82-.09-2-.12-3.06a7.48,7.48,0,0,1-1.32.1,1.9,1.9,0,0,1-1.84-1.07l.17-.16a2.6,2.6,0,0,0,1.64.61A8,8,0,0,0,58,89.65c0-.59,0-1.27,0-1.57s-.06-.35-.22-.4a3.75,3.75,0,0,0-.83-.12ZM58.09,94a5.4,5.4,0,0,0-1.21-.13c-.72,0-1.51.3-1.51.87s.53.75,1.23.75c1.28,0,1.49-.48,1.49-1.43Z"/><path class="cls-3" d="M55.34,109c-.28-.38-1-1.11-1.5-1.67v4.94H53V107a13.8,13.8,0,0,1-2.1,3.42,5.73,5.73,0,0,0-.46-.84,12.73,12.73,0,0,0,2.39-3.89H50.65v-.85H53v-1.94c-.69.14-1.4.26-2.06.36a3,3,0,0,0-.28-.7,20,20,0,0,0,4.5-1.13l.66.66a13.47,13.47,0,0,1-1.94.62v2.13h2.1v.85h-2.1v.72c.44.37,1.75,1.6,2,1.9Zm5.26,3.31a11.63,11.63,0,0,0-.3-1.2c-2,.27-4,.52-5.43.69l-.22-.93,1.13-.11a76.22,76.22,0,0,0,1.87-9.15l1,.17c-.47,2.82-1.25,6.41-1.95,8.89l3.33-.35a21.69,21.69,0,0,0-1.26-2.87l.84-.26A20.7,20.7,0,0,1,61.53,112Z"/><path class="cls-3" d="M54.15,122.38c-.24.63-.78,2-.91,2.39a3.33,3.33,0,0,0-.19.85c0,.34.24.72.24,1a.33.33,0,0,1-.36.37c-.21,0-.4-.18-.57-.45a5.33,5.33,0,0,1-.68-2.62,10.84,10.84,0,0,1,.56-3.11,6.35,6.35,0,0,0,.3-1.37,2,2,0,0,0-.66-1.24l.19-.15a2.25,2.25,0,0,1,.6.35,2,2,0,0,1,.77,1.25,3.68,3.68,0,0,1-.44,1.17,7.46,7.46,0,0,0-.75,2.89,1.82,1.82,0,0,0,.18,1c.08.14.16.17.27,0,.25-.4.91-1.86,1.19-2.45Zm1.17,1a4.75,4.75,0,0,0,.35,1c.4.71,1,1.1,2.46,1.1a11.77,11.77,0,0,0,2-.21c.32,0,.63.12.63.39,0,.48-1.08.63-2.37.63-1.84,0-2.84-.63-3.18-1.83a3.66,3.66,0,0,1-.15-1.06Zm.14-3.67a5.85,5.85,0,0,1,2.8-.73,3.94,3.94,0,0,1,1.65.24.51.51,0,0,1,.36.43c0,.15-.09.25-.34.28a3.67,3.67,0,0,0-1,.24c-.5.24-1.34.71-1.93,1.06l-.18-.21c.51-.38,1.34-1,1.58-1.19s.15-.21-.64-.21a7.59,7.59,0,0,0-2.23.38Z"/><path class="cls-2" d="M43.57,29.43a9.94,9.94,0,0,1-2.16,4.44,10,10,0,0,0,3.15,1.19,7,7,0,0,0-1.17,1.64A9.55,9.55,0,0,1,40,35.15a11.59,11.59,0,0,1-3.22,1.55,7,7,0,0,0-1-1.61,9,9,0,0,0,2.85-1.21,11,11,0,0,1-1.85-3.19h-.26a11.79,11.79,0,0,1-1.66,6,6.45,6.45,0,0,0-1.49-1c1.34-1.79,1.43-4.5,1.43-6.4V25.85h9.32v1.72H36.5V29H42l.32-.07Zm-5,1.26a7.18,7.18,0,0,0,1.36,2,6.61,6.61,0,0,0,1.28-2Z"/><path class="cls-2" d="M36,45c0,2-.2,5.13-1.32,7.05a8.15,8.15,0,0,0-1.51-1c1-1.73,1.08-4.31,1.08-6.07V42h4.22V40.67H40.3V42h4.23v1.66H39.78a14.41,14.41,0,0,1,2.57,1.55L41.1,46.48a14.75,14.75,0,0,0-2.89-1.88l1-1H36Zm-.35,5.42a10.34,10.34,0,0,0,.77-3.64l1.57.33a11.88,11.88,0,0,1-.79,4Zm7.49.66a10.11,10.11,0,0,0-.41-1.68c-.16,1.91-.59,2.47-1.73,2.47H39.92c-1.4,0-1.74-.51-1.74-2V45.88h1.73v3.91c0,.46.05.51.31.51h.62c.29,0,.35-.28.4-1.86a5.09,5.09,0,0,0,1.41.66A15.82,15.82,0,0,0,41.78,47l1.56-.6a14.81,14.81,0,0,1,1.52,4Z"/><path class="cls-2" d="M37.7,56.94c-.08.55-.15,1.26-.18,1.76-.05,1.22-.13,3.56-.13,4.85A1.29,1.29,0,0,0,38.82,65a4.57,4.57,0,0,0,3.88-2.36L44,64.23a6.22,6.22,0,0,1-5.19,2.71c-2,0-3.29-.91-3.29-2.95,0-1.46.1-4.4.1-5.29a8.42,8.42,0,0,0-.18-1.79Z"/><path class="cls-2" d="M35.12,73.27c1.09-.09,2.86-.23,5-.42,1.16-.1,2.54-.17,3.38-.19v1.8a14.29,14.29,0,0,0-2.23.14,3.24,3.24,0,0,0-2.34,3c0,1.72,1.61,2.39,3.63,2.51l-.66,2c-2.61-.19-4.82-1.6-4.82-4.09a4.75,4.75,0,0,1,1.47-3.39c-1,.11-3,.35-4.45.65l-.17-1.92C34.39,73.32,34.89,73.29,35.12,73.27Z"/><path class="cls-2" d="M41.92,88.58c-.43.31-.84.62-1.15.86-.73.56-2.18,1.67-2.91,2.31-.58.49-.55.6,0,1.09.77.67,3.06,2.45,4.22,3.55l-1.64,1.53c-.39-.43-.77-.82-1.15-1.21-.64-.67-2.32-2.11-3.37-3S34.81,92,36.05,91c.92-.76,2.42-2,3.21-2.75a9,9,0,0,0,1-1.1Z"/><path class="cls-2" d="M44.54,111.75a3.24,3.24,0,0,1-2.23.83c-.93,0-1.55-.71-1.55-1.93s.41-2.84.41-3.86c0-.51-.27-.8-.71-.8-.8,0-2,1-2.88,2,0,.24,0,.49,0,.72,0,.89,0,2,.08,3.14,0,.22.06.72.1,1H35.82c0-.29,0-.77,0-1,0-.71,0-1.32,0-2-.44.64-.91,1.35-1.23,1.78l-1.09-1.55c.66-.8,1.75-2.2,2.44-3.21l0-.62c-.6.06-1.42.17-2,.25l-.17-1.8c.37,0,.67,0,1.15,0,.31,0,.75-.06,1.18-.12,0-.37,0-.66,0-.78a5.52,5.52,0,0,0-.06-1.14l2,.06c-.07.36-.18,1-.27,1.65l.45.59c-.15.19-.43.6-.63.91v0A6,6,0,0,1,41,104.31,1.73,1.73,0,0,1,43,106.12c0,1.23-.36,2.77-.36,4a.35.35,0,0,0,.36.39,2.2,2.2,0,0,0,1.36-.74Z"/><path class="cls-2" d="M42.24,119.68c-.3.2-.61.36-.89.57-.66.44-1.56,1.2-2.2,1.69a3.8,3.8,0,0,1,.81-.07c2,0,3.57,1.22,3.57,3.06s-1.48,3.4-4.59,3.4c-1.54,0-2.74-.75-2.74-2a2.13,2.13,0,0,1,2.26-2A2.39,2.39,0,0,1,41,126.15a1.49,1.49,0,0,0,.69-1.28c0-1-.9-1.54-2.18-1.54a5.27,5.27,0,0,0-4.08,2.41l-1.31-1.31c.75-.6,2.08-1.77,2.76-2.35s1.6-1.36,2.16-1.87c-.59,0-1.55.06-2.17.11a10.2,10.2,0,0,0-1.06.11l0-1.83a9,9,0,0,0,1.18.08c.62,0,2.71,0,3.41-.1a7.53,7.53,0,0,0,1-.14Zm-2.87,7c-.09-.61-.42-1-.9-1s-.6.21-.6.45.3.57.89.57C39,126.68,39.18,126.66,39.37,126.65Z"/><path class="cls-2" d="M39.79,133.07c0,.22,0,.49,0,.79.1,1.72.67,6.65,5.12,8.76a5.12,5.12,0,0,0-1.34,1.49,9.49,9.49,0,0,1-4.62-5.62,10.59,10.59,0,0,1-4.24,5.63,6,6,0,0,0-1.49-1.4c4.77-2.77,4.51-8.08,4.59-9.65Z"/><path class="cls-3" d="M36.53,149.61a2.3,2.3,0,0,1,.78-.15c.48,0,1.36.4,1.36.7s-.24.4-.38.7-.28.72-.5,1.24a5.77,5.77,0,0,1,1-.11c.88,0,1.39.49,1.39,1.88A7.08,7.08,0,0,1,39,157.82a1.82,1.82,0,0,1-1.43.73c-.4,0-.47-.16-.62-.51-.09-.19-.17-.32-.82-.88l.12-.2a3.94,3.94,0,0,0,1.43.7,1,1,0,0,0,.92-.61,7,7,0,0,0,.83-3.37c0-.85-.21-1.21-.84-1.21a5,5,0,0,0-1.07.17c-.32.79-.72,1.69-1.1,2.47-.65,1.29-1.25,2.45-1.74,3.2-.18.29-.31.36-.49.36a.41.41,0,0,1-.36-.45.89.89,0,0,1,.19-.54,17.9,17.9,0,0,0,1.83-2.9c.29-.55.6-1.25.88-1.92-.44.15-.83.29-1.07.39a2.91,2.91,0,0,1-1,.32c-.3,0-.75-.46-.84-.83a2,2,0,0,1,0-.68l.23-.05c.14.33.22.7.56.7a19.8,19.8,0,0,0,2.29-.47,9.23,9.23,0,0,0,.61-1.88.31.31,0,0,0-.18-.33,4.6,4.6,0,0,0-.9-.18ZM41,152a3,3,0,0,1,2,1,3.18,3.18,0,0,1,.74,2.15c0,.49-.15.89-.51.89s-.32-.33-.66-.4a6.77,6.77,0,0,0-1.39,0l-.06-.28c.43-.09,1.16-.25,1.48-.35s.29-.21.28-.51a2.67,2.67,0,0,0-.48-1.31,2.22,2.22,0,0,0-1.55-.93Zm.5-2a4.07,4.07,0,0,1,1.34.79c.3.27.42.47.42.7a.28.28,0,0,1-.29.31c-.19,0-.33-.25-.55-.55a5.15,5.15,0,0,0-1.08-1Zm1.06-.74a4.14,4.14,0,0,1,1.34.67,1,1,0,0,1,.45.73.27.27,0,0,1-.29.31c-.19,0-.3-.29-.56-.56a5.86,5.86,0,0,0-1.09-1Z"/><path class="cls-3" d="M21,28.62A10.59,10.59,0,0,0,22.46,28a1,1,0,0,1,.41-.17c.21,0,.53.12.53.33s-.14.35-.6.53a12,12,0,0,1-2,.67c-.16.57-.36,1.19-.56,1.75a28.74,28.74,0,0,1-1.81,4.32c-.17.28-.28.39-.53.39s-.35-.23-.35-.51.11-.37.3-.69a17.12,17.12,0,0,0,1.83-3.7c.15-.43.3-.92.43-1.4a8.55,8.55,0,0,1-1.32.13A1.64,1.64,0,0,1,17.1,28.5l.21-.15a2,2,0,0,0,1.42.66,6.33,6.33,0,0,0,1.53-.19,10.7,10.7,0,0,0,.29-1.51c0-.27,0-.37-.24-.47a4.61,4.61,0,0,0-.75-.21l0-.28a2.94,2.94,0,0,1,.75-.07c.42,0,1.18.3,1.19.57a5.76,5.76,0,0,1-.31,1Zm.67,4.3a3,3,0,0,0,.4,1.12,2.33,2.33,0,0,0,2.12.91,10.52,10.52,0,0,0,1.9-.23c.28,0,.6.13.6.42s-.3.36-.66.45a8,8,0,0,1-1.57.15c-1.4,0-2.46-.43-2.82-1.47A3.72,3.72,0,0,1,21.38,33Zm.65-2.72a5.78,5.78,0,0,1,2.15-.44,3.51,3.51,0,0,1,1.59.29c.28.14.42.33.42.51s-.19.29-.49.31a2.1,2.1,0,0,0-.71.18c-.34.13-.91.41-1.3.6l-.16-.2a13.63,13.63,0,0,0,1.23-.87c.1-.07.05-.12,0-.15a3.21,3.21,0,0,0-1-.14,8.59,8.59,0,0,0-1.59.17Z"/><path class="cls-3" d="M22.1,41.68l.15-.22a2.46,2.46,0,0,1,.72.25c.43.23.86.72.86,1s-.2.33-.61.65c-.79.63-2.34,2-2.82,2.54s-.43.48-.43.61.14.31.41.5a18.3,18.3,0,0,1,3.08,2.79A2.37,2.37,0,0,1,24,51c0,.31-.16.53-.47.53a.51.51,0,0,1-.42-.3,11.18,11.18,0,0,0-.57-1,14.17,14.17,0,0,0-2.83-2.88,1,1,0,0,1-.44-.77,1,1,0,0,1,.3-.62c.59-.71,2.33-2.4,2.87-3,.2-.24.27-.35.27-.49S22.58,42,22.1,41.68Z"/><path class="cls-3" d="M20.17,57.48a2.25,2.25,0,0,1,1-.31c.44,0,.92.14,1,.37a10.16,10.16,0,0,0,.63,1.7,8.71,8.71,0,0,0,2-1.06.69.69,0,0,1,.69.08c.11.14.05.34-.13.49a9.12,9.12,0,0,1-2.23,1.13,11.88,11.88,0,0,0,2.08,2.51c.27.28.37.4.38.59,0,.34-.18.79-.43.79s-.43-.18-.76-.37a5.67,5.67,0,0,0-2.89-.79c-1.3,0-2.32.73-2.32,1.69s1,1.51,2.86,1.51c.89,0,1.3-.12,1.69-.12s.63.15.63.39-.55.55-2,.55c-2,0-3.76-.64-3.76-2.23,0-1.27,1.38-2.22,3.17-2.22a8.41,8.41,0,0,1,2.56.41c.12,0,.14,0,0-.09A19.58,19.58,0,0,1,22.55,60a10.28,10.28,0,0,1-2.53.47,2.33,2.33,0,0,1-2.2-1.32L18,59a2.69,2.69,0,0,0,2,.82,8.24,8.24,0,0,0,2.19-.39c-.3-.54-.54-1.08-.8-1.46s-.51-.29-1.18-.28Z"/><path class="cls-3" d="M20.85,72.77l.08-.23a2.12,2.12,0,0,1,.8,0c.57.13,1.08.64,1.08,1s-.33.31-.62.67A29.23,29.23,0,0,0,20,77.41c-.07.1,0,.16.08.1A3.21,3.21,0,0,1,21.72,77a1.29,1.29,0,0,1,1.45,1.43c0,.54-.05,1.23-.05,1.78a.84.84,0,0,0,1,1c1.31,0,2.22-1.29,2.74-2.67l.25.08c-.5,2.59-1.92,3.37-3.12,3.37a1.43,1.43,0,0,1-1.62-1.56c0-.66.11-1.36.11-2,0-.52-.19-.93-.88-.93-1.1,0-2.11,1.08-2.66,2.22a19.86,19.86,0,0,0-.73,1.87c-.11.26-.24.41-.48.41s-.41-.21-.41-.56a7.13,7.13,0,0,1,1.08-2.22c1-1.76,2.79-4.67,3.22-5.45.15-.28.12-.45,0-.57A2.73,2.73,0,0,0,20.85,72.77Z"/><path class="cls-3" d="M18,90.61c0-.64-.11-1-.94-1.54l.11-.17a3.27,3.27,0,0,1,.76.17c.43.21,1,.75,1,1.23a17.42,17.42,0,0,0-.41,2.48,2.68,2.68,0,0,0,1.18,2.49.28.28,0,0,0,.41-.09A20.19,20.19,0,0,0,21.29,93l.31.13c-.27.78-.65,1.77-.72,2.14-.11.53.1.59.1.84s-.34.51-.83.31A3.8,3.8,0,0,1,18,92.8C18,92,18,91.15,18,90.61Zm5.46-.31.1-.28a3.66,3.66,0,0,1,2.23,1.16,4.23,4.23,0,0,1,1,2.64c0,.47-.15.68-.46.68s-.35-.14-.4-.42a6.31,6.31,0,0,0-.66-2.33A3.41,3.41,0,0,0,23.5,90.3Z"/><path class="cls-3" d="M19.66,103.6c.15.33.31.7.62.7a14.28,14.28,0,0,0,2.48-.55c.27-.07.29-.19.46-.19.36,0,1,.5,1,.82s-.28.24-.7.59c-.6.52-2.14,2-2.68,2.59-.09.09,0,.18.07.13a5.66,5.66,0,0,1,2-.42,2.61,2.61,0,0,1,2.81,2.64c0,1.48-1.34,2.69-3.57,2.69-1.32,0-2.23-.53-2.23-1.38a1.21,1.21,0,0,1,1.33-1.12,1.93,1.93,0,0,1,1.92,1.7A2.22,2.22,0,0,0,25,109.72a2,2,0,0,0-2.18-2c-1.69,0-2.87,1.06-3.88,2.33-.16.22-.26.29-.44.29s-.32-.18-.31-.49a1,1,0,0,1,.38-.66A57.18,57.18,0,0,0,23,104.42c.12-.16.05-.22-.09-.18a14.56,14.56,0,0,0-1.89.64c-.22.09-.39.27-.58.27a1.23,1.23,0,0,1-1-.85,1.88,1.88,0,0,1,0-.67Zm2.83,8.33c-.16-.91-.72-1.38-1.38-1.38-.43,0-.74.24-.74.62s.5.78,1.63.78Z"/><path class="cls-3" d="M23.11,122.47c1.83.9,2.52,2,2.52,3.27,0,1.13-1,2.46-3,2.46a2.23,2.23,0,0,1-2.46-2.4c0-.29,0-.65.08-1-1.1-.25-1.74-.79-1.74-1.47s.71-1.32,1.6-1.78a2.76,2.76,0,0,1-.86-.37,1.88,1.88,0,0,1-.81-1.2l.21-.12a2.47,2.47,0,0,0,1.08,1,4.43,4.43,0,0,0,1.29.29,15.56,15.56,0,0,0,.45-1.73.38.38,0,0,0-.28-.45,2.31,2.31,0,0,0-.62-.18v-.25a3.45,3.45,0,0,1,.66-.06c.55,0,1.27.57,1.27.89s-.18.32-.31.59a8.05,8.05,0,0,0-.47,1.24l.42,0c.38,0,.54.24.54.45s-.17.3-.46.31a5.09,5.09,0,0,1-.74,0c-.18.59-.4,1.42-.56,2.2.58,0,1.05,0,1.31,0s.47.16.47.39-.14.34-.59.39a6.25,6.25,0,0,1-1.34,0,5.68,5.68,0,0,0-.09.93c0,1.18.76,1.7,1.85,1.7a2.06,2.06,0,0,0,2.3-2c0-1.31-.78-2.06-1.88-2.87Zm-2.77,1.58c.13-.79.31-1.58.46-2.17-.78.06-1.84.74-1.84,1.31C19,123.53,19.25,123.88,20.34,124.05Z"/><path class="cls-3" d="M20.85,134.21l.08-.23a2.12,2.12,0,0,1,.8.05c.57.13,1.08.64,1.08,1,0,.23-.33.31-.62.67A29.23,29.23,0,0,0,20,138.85c-.07.1,0,.16.08.1a3.21,3.21,0,0,1,1.62-.55,1.29,1.29,0,0,1,1.45,1.43c0,.54-.05,1.23-.05,1.78a.84.84,0,0,0,1,1c1.31,0,2.22-1.29,2.74-2.67l.25.08c-.5,2.59-1.92,3.37-3.12,3.37a1.43,1.43,0,0,1-1.62-1.56c0-.66.11-1.36.11-2.05,0-.52-.19-.93-.88-.93-1.1,0-2.11,1.08-2.66,2.22a19.86,19.86,0,0,0-.73,1.87c-.11.26-.24.41-.48.41s-.41-.21-.41-.56a7.13,7.13,0,0,1,1.08-2.22c1-1.76,2.79-4.67,3.22-5.45.15-.28.12-.45,0-.57A2.73,2.73,0,0,0,20.85,134.21Z"/><path class="cls-3" d="M21.79,149a.8.8,0,1,1,0,1.59.8.8,0,0,1,0-1.59Zm0,3.91a.8.8,0,1,1,0,1.59.8.8,0,0,1,0-1.59Zm0,3.91a.8.8,0,0,1,.82.79.81.81,0,0,1-.82.81.8.8,0,0,1-.79-.81A.79.79,0,0,1,21.79,156.86Z"/></g></g></svg>