<svg xmlns="http://www.w3.org/2000/svg" viewBox="0 0 104 154"><defs><style>.cls-1{fill:none;stroke:#ff2291;stroke-miterlimit:10;stroke-opacity:0.5;stroke-width:2px;}.cls-2{fill:#fff;}.cls-3{fill:#ff2291;}</style></defs><g id="Layer_2" data-name="Layer 2"><g id="文字要素_スクロール_" data-name="文字要素（スクロール）"><polyline class="cls-1" points="65 1 103 1 103 39"/><polyline class="cls-1" points="39 153 1 153 1 115"/><path class="cls-2" d="M68.05,29.21c0-.8-.13-1.19-1.17-1.92l.13-.21a3.32,3.32,0,0,1,.95.21c.54.25,1.3.92,1.3,1.52a22.85,22.85,0,0,0-.51,3.11A3.37,3.37,0,0,0,70.22,35a.34.34,0,0,0,.51-.12,24.44,24.44,0,0,0,1.38-2.67l.39.17c-.34,1-.81,2.2-.9,2.66-.13.66.12.74.12,1.05s-.42.65-1,.39A4.75,4.75,0,0,1,68,32C68,30.88,68.05,29.88,68.05,29.21Zm6.83-.4.13-.34a4.6,4.6,0,0,1,2.79,1.45,5.3,5.3,0,0,1,1.27,3.31c0,.58-.19.85-.58.85-.24,0-.44-.18-.5-.53a8,8,0,0,0-.82-2.92A4.39,4.39,0,0,0,74.88,28.81Z"/><path class="cls-2" d="M68.05,48.41c0-.8-.13-1.19-1.17-1.92l.13-.21a3.32,3.32,0,0,1,.95.21c.54.25,1.3.93,1.3,1.53a22.35,22.35,0,0,0-.51,3.1,3.37,3.37,0,0,0,1.47,3.12.34.34,0,0,0,.51-.12,24.44,24.44,0,0,0,1.38-2.67l.39.17c-.34,1-.81,2.2-.9,2.67-.13.65.12.73.12,1s-.42.65-1,.4A4.77,4.77,0,0,1,68,51.15C68,50.08,68.05,49.08,68.05,48.41ZM74.88,48l.13-.35a4.61,4.61,0,0,1,2.79,1.46,5.3,5.3,0,0,1,1.27,3.3c0,.58-.19.85-.58.85-.24,0-.44-.18-.5-.53a8.05,8.05,0,0,0-.82-2.92A4.33,4.33,0,0,0,74.88,48Z"/><path class="cls-2" d="M68.05,67.6c0-.79-.13-1.18-1.17-1.91l.13-.21a3,3,0,0,1,.95.21c.54.25,1.3.92,1.3,1.52a22.85,22.85,0,0,0-.51,3.11,3.37,3.37,0,0,0,1.47,3.12.35.35,0,0,0,.51-.12,24.44,24.44,0,0,0,1.38-2.67l.39.16c-.34,1-.81,2.21-.9,2.67-.13.66.12.74.12,1s-.42.65-1,.39A4.75,4.75,0,0,1,68,70.35C68,69.28,68.05,68.28,68.05,67.6Zm6.83-.39.13-.34a4.6,4.6,0,0,1,2.79,1.45,5.3,5.3,0,0,1,1.27,3.31c0,.58-.19.85-.58.85-.24,0-.44-.18-.5-.53A8,8,0,0,0,77.17,69,4.34,4.34,0,0,0,74.88,67.21Z"/><path class="cls-2" d="M68.05,86.81c0-.8-.13-1.19-1.17-1.92l.13-.21a3.32,3.32,0,0,1,.95.21c.54.25,1.3.92,1.3,1.53a22.35,22.35,0,0,0-.51,3.1,3.37,3.37,0,0,0,1.47,3.12.34.34,0,0,0,.51-.12,24.44,24.44,0,0,0,1.38-2.67l.39.17c-.34,1-.81,2.2-.9,2.67-.13.65.12.73.12,1s-.42.65-1,.4A4.78,4.78,0,0,1,68,89.55C68,88.48,68.05,87.48,68.05,86.81Zm6.83-.39.13-.35a4.6,4.6,0,0,1,2.79,1.45,5.33,5.33,0,0,1,1.27,3.31c0,.58-.19.85-.58.85-.24,0-.44-.18-.5-.53a8,8,0,0,0-.82-2.92A4.33,4.33,0,0,0,74.88,86.42Z"/><path class="cls-3" d="M50.79,28.59A19.43,19.43,0,0,0,54.94,25l1.92,1.81A27.92,27.92,0,0,1,53,29.94v5.73a10.49,10.49,0,0,0,.15,2.11H50.33c.05-.39.1-1.41.1-2.11V31.41a29.53,29.53,0,0,1-4.92,2l-1.09-2.24A23,23,0,0,0,50.79,28.59Z"/><path class="cls-3" d="M48.57,44.61l2.49-.39c0,.29.09.83.16,1.2,0,.21.11.65.21,1.22,1.13-.18,2.12-.35,2.58-.44s1.14-.22,1.55-.34L56,48.15c-.38,0-1,.14-1.52.2l-2.64.42c.12.63.26,1.31.38,2,1.23-.21,2.32-.39,2.93-.51s1.18-.25,1.6-.37l.46,2.31a15.08,15.08,0,0,0-1.66.24c-.65.09-1.73.26-2.91.46.21,1.07.37,2,.48,2.46l.37,1.48-2.53.44c-.08-.57-.11-1.1-.18-1.53s-.24-1.36-.45-2.47c-1.39.23-2.65.44-3.24.56s-1.22.21-1.54.3L45,51.81c.4,0,1.14-.1,1.64-.18s1.87-.28,3.23-.51c-.11-.66-.25-1.35-.37-2l-2.65.43c-.5.11-.89.2-1.43.35L45,47.49a12.49,12.49,0,0,0,1.42-.1L49.13,47c-.11-.54-.2-1-.25-1.22A11.68,11.68,0,0,0,48.57,44.61Z"/><path class="cls-3" d="M48.73,67.2a20.09,20.09,0,0,1,4.91-1c2.35,0,4,1.46,4,3.59,0,2.51-2,4.52-6.93,4.79l-.9-2.15c3.11-.06,5.54-.81,5.54-2.67a1.6,1.6,0,0,0-1.82-1.6c-1.72,0-4.27,1.15-5.65,1.75L47,67.6A15.61,15.61,0,0,0,48.73,67.2Z"/><path class="cls-3" d="M46.09,84.29l6.3-.53c1.47-.12,3.2-.22,4.28-.27v2.3a17,17,0,0,0-2.82.18,4.06,4.06,0,0,0-3,3.82c0,2.16,2,3,4.57,3.15l-.84,2.47c-3.28-.25-6.09-2-6.09-5.16A6,6,0,0,1,50.42,86a49.53,49.53,0,0,0-5.62.82l-.22-2.43C45.17,84.35,45.81,84.32,46.09,84.29Z"/><path class="cls-2" d="M28.21,26a2.06,2.06,0,0,1,1-.32c.6,0,1.53.33,1.53.69s-.24.57-.26.95c0,.18,0,.48,0,.82,2.43-.26,3.35-.39,3.65-.39.52,0,1.3.28,1.3.76,0,.27-.15.38-.42.38a20,20,0,0,0-4.54-.11c0,.71,0,1.54,0,2.27a2.86,2.86,0,0,1,.62,2c0,2.7-2,4.35-4.89,5L26,37.69a6,6,0,0,0,3.79-3.15c-1.44.68-2.62-.48-2.62-2a2,2,0,0,1,1.93-2.08,2.25,2.25,0,0,1,.6.07c0-.45,0-1.08-.07-1.74a37.56,37.56,0,0,0-3.89.72,6.42,6.42,0,0,1-1.33.41,2,2,0,0,1-1.35-1.08,3.07,3.07,0,0,1-.15-.89l.28-.1c.33.49.62.94,1.11.94s3.57-.43,5.3-.63c0-.52-.06-1-.09-1.39s-.09-.38-.32-.44a4.43,4.43,0,0,0-1-.1Zm1.9,6.56c0-.94-.47-1.44-1.1-1.44a1.28,1.28,0,0,0-1.2,1.4A1.25,1.25,0,0,0,29,33.88C29.73,33.88,30.11,33.54,30.11,32.53Z"/><path class="cls-2" d="M32,49.47a1.56,1.56,0,0,1,.8-.1c.46.06,1,.42,1,.7a5.91,5.91,0,0,1-.11.81c0,.29-.13.81-.25,1.33a7.4,7.4,0,0,1,1.6,1.14,1.17,1.17,0,0,1,.36.88.4.4,0,0,1-.42.42c-.37,0-.78-.62-1.86-1.42-.84,2-2.65,3.38-5.32,4l-.23-.35a7.08,7.08,0,0,0,4.76-4.17A8.7,8.7,0,0,0,27.5,51.3h0c-.64,1.23-1.39,2.83-1.81,3.42s-.88,1.05-1.58,1.05S22.8,54.5,23,53.46c.3-1.44,2-2.46,3.92-2.71l.07-.12c.71-1.26,2-3.39,2.38-4.05.12-.24,0-.3-.14-.24a20.78,20.78,0,0,0-2,.75c-.23.09-.45.34-.71.34a1.63,1.63,0,0,1-1.19-1,2.44,2.44,0,0,1-.1-.79l.29-.08c.21.39.36.77.79.77a12,12,0,0,0,2.58-.6c.51-.15.61-.38.84-.38.41,0,1.26.59,1.26.93s-.53.47-.86.86a30.5,30.5,0,0,0-2.29,3.48v0h.05a11.29,11.29,0,0,1,4.75,1.08,5.38,5.38,0,0,0,.15-1.37c0-.25-.06-.34-.26-.45a1.74,1.74,0,0,0-.54-.21Zm-5.4,1.91a3.5,3.5,0,0,0-3,2c-.15.62.15,1.27.56,1.27s.58-.21.88-.64S26,52.35,26.58,51.38Z"/><path class="cls-2" d="M29.78,69.49A11.17,11.17,0,0,0,31.85,69a6.88,6.88,0,0,1,.93-.33c.33,0,.72.15.72.48s-.17.38-.45.48a16.88,16.88,0,0,1-3.24.65c0,.94.12,1.75.19,2.44a7.67,7.67,0,0,1,3.48,1.55,1.16,1.16,0,0,1,.51.82.4.4,0,0,1-.4.45c-.27,0-.44-.16-.71-.4a6.92,6.92,0,0,0-2.8-1.61c0,.21,0,.41,0,.6,0,1.23-1,2-2.67,2-1.45,0-2.5-.68-2.5-1.73s1.51-1.81,3.34-1.81a9.24,9.24,0,0,1,.93,0c0-.57-.07-1.36-.1-2.24-.6,0-1.2.08-1.8.08-2.06,0-3.06-1-1.5-2.53l.31.18c-.93,1.21-.31,1.56,1.16,1.56a13.59,13.59,0,0,0,1.8-.11V69c0-.48,0-1,0-1.47-.73.07-1.48.14-2.19.14a3.13,3.13,0,0,1-3-1.57l.28-.19a3.31,3.31,0,0,0,2.57,1,19.18,19.18,0,0,0,2.36-.18c0-.75,0-1.32,0-1.46,0-.29-.06-.37-.3-.44a4.93,4.93,0,0,0-1.08-.19l0-.31a2.61,2.61,0,0,1,1-.23c.64,0,1.57.41,1.57.8s-.21.43-.27.81-.09.54-.13.89A19.57,19.57,0,0,0,32.13,66a4.07,4.07,0,0,1,.86-.29c.34,0,.78.16.78.48s-.21.37-.5.46a21.41,21.41,0,0,1-3.43.73c-.05.5-.06,1.1-.06,1.81Zm-.57,3.87a8.43,8.43,0,0,0-1.33-.12c-1.45,0-2.38.53-2.38,1.13s.53.93,1.5.93C28.77,75.3,29.19,74.76,29.21,73.36Z"/><path class="cls-2" d="M30,83.7a3,3,0,0,1,.93-.24c.72,0,1.59.57,1.59,1,0,.24-.27.33-.3.85s-.05,1-.07,1.7a18.26,18.26,0,0,1,2.35-.36c.61,0,1.14.22,1.14.68,0,.31-.23.4-.63.4a13.68,13.68,0,0,0-2.15,0,7.48,7.48,0,0,0-.75.07,18.87,18.87,0,0,1-.28,3c-.15.67-.48,1.09-1,1.09a.48.48,0,0,1-.5-.32c-.22-.46-.87-.71-1.45-1l.1-.33a8.85,8.85,0,0,0,1.62.39c.23,0,.38-.06.47-.38a12.19,12.19,0,0,0,.24-2.33c-1.44.27-3.1.66-4.14.94,0,1.26-.06,2.66,0,3.33,0,1.56.34,1.75,2.31,1.75a25.29,25.29,0,0,0,3.4-.36c.48,0,.9.18.9.55s-.18.4-.64.52a19.28,19.28,0,0,1-3.39.23c-2.13,0-3.3-.46-3.36-2.12-.05-.82,0-2.25-.05-3.64-1.77.55-2.35.94-2.76.94s-1-.51-1.2-1a2.22,2.22,0,0,1-.06-.75l.21-.09c.25.37.62.81,1,.81s1.85-.39,2.83-.63c0-1,0-1.93,0-2.35s-.12-.51-.37-.6a3.58,3.58,0,0,0-.85-.15l0-.32a3.35,3.35,0,0,1,1-.18c.58,0,1.52.48,1.52.87s-.24.33-.3.92c0,.34-.05.91-.08,1.59,1-.24,2.82-.68,4.14-1,0-.89,0-2.06,0-2.63,0-.24-.14-.36-.41-.43A5.35,5.35,0,0,0,30,84Z"/><path class="cls-2" d="M27.56,102.91l.11-.29a2.57,2.57,0,0,1,1,.06c.71.17,1.35.8,1.35,1.28,0,.28-.42.39-.78.84a36.17,36.17,0,0,0-2.72,3.91c-.09.12,0,.2.11.12a4,4,0,0,1,2-.69,1.61,1.61,0,0,1,1.82,1.79c0,.67-.06,1.54-.06,2.23s.37,1.22,1.2,1.22c1.63,0,2.77-1.62,3.42-3.35l.31.11c-.63,3.24-2.4,4.21-3.9,4.21a1.78,1.78,0,0,1-2-1.95c0-.82.13-1.71.13-2.56,0-.66-.24-1.17-1.09-1.17-1.38,0-2.64,1.35-3.33,2.77-.45,1-.72,1.82-.92,2.34-.13.33-.29.51-.59.51s-.52-.25-.52-.69a8.83,8.83,0,0,1,1.36-2.77c1.27-2.21,3.47-5.85,4-6.83.2-.34.16-.55,0-.7A3.48,3.48,0,0,0,27.56,102.91Z"/><path class="cls-2" d="M29,121.46a1,1,0,0,1,1,1,1,1,0,0,1-1,1,1,1,0,0,1-1-1A1,1,0,0,1,29,121.46Zm0,4.88a1,1,0,1,1,0,2,1,1,0,1,1,0-2Zm0,4.89a1,1,0,0,1,1,1,1,1,0,0,1-1,1,1,1,0,0,1-1-1A1,1,0,0,1,29,131.23Z"/></g></g></svg>